<?xml version="1.0" encoding="utf-8"?>
<!-- Generator: Adobe Illustrator 26.0.3, SVG Export Plug-In . SVG Version: 6.00 Build 0)  -->
<svg version="1.0" id="Layer_1" xmlns="http://www.w3.org/2000/svg" xmlns:xlink="http://www.w3.org/1999/xlink" x="0px" y="0px"
	 viewBox="0 0 1144.1 916.5" style="enable-background:new 0 0 1144.1 916.5;" xml:space="preserve">
<style type="text/css">
	.st0{fill:#FFFFFF;}
	.st1{fill:#1B1A1A;}
	.st2{fill:#68A5CE;}
</style>
<path class="st0" d="M516.7,815.6l-1-0.4c-87-35.8-169.4-133.8-170.3-134.8c-28.9-35.9-53.1-75.4-72.2-117.3
	c-20.5-44.9-35.9-93.7-45.6-145.1l-0.2,0.2l-3-18.2c-8.3-51.2-11.3-105.6-8.8-161.7V238c-0.1-12,3.4-28.6,34.6-34.3h0.2l34.3-6
	c37.7-6.7,67.6-12,116.7-15.8c-13.5-40.1-59.5-59-60-59.2l-31.1-12.3l32.6-7.4c6.5-1.5,13.2-2.2,19.8-2.2c21.1,0,43.1,7.2,65.3,21.3
	c20.4,13,40.7,31.7,60.2,55.5l5.8-0.1c7.3-0.2,14.8-0.4,22.3-0.6h0.5c131.3,2.8,171.3,10,232,20.8c9.6,1.7,21.4,3.8,34.2,6h0.2
	c31.3,5.8,34.8,22.4,34.7,34.3v0.6c4.4,102.2-8.7,196.5-39.2,280.1l-0.8,2C929.5,580.4,929.5,656,929.4,660.5
	c0.1,1.8,0.5,14.5-2,19.9l-1,2.1l-2.2-0.9c-19.2-8.2-26.9-10.5-27-10.5l-0.3-0.1c-5.7-2.3-11.6-4.3-17.5-6c-6.5-1.9-13.2-3.6-19.8-5
	c-15-2.3-32-3.4-51.8-4.6c-27.7-1.8-58.9-3.8-94-9.8l-0.6,0.9c-56.9,82.8-122.8,130-168.1,154.9l-1.2,0.7l0,0l-11.9,6.5l0-0.3
	c-2.8,1.4-5.4,2.7-7.9,3.9L516.7,815.6"/>
<path class="st0" d="M513.3,402.5c-0.1,0-0.2,0-0.3,0C513.1,402.4,513.2,402.4,513.3,402.5 M451.1,480.6h0.1
	C451,480.6,451.1,480.6,451.1,480.6"/>
<path class="st1" d="M505.2,198L505.2,198c5.3,7.5,10.5,15.3,15.4,23.1c56.8,91.1,111.1,123.5,153.9,158.7
	c60.7,50.1,66.4,111.7,66.4,111.7c4.7,2.3,9.2,4.8,13.6,7.5c2.2,1.3,3.9,2.5,5.5,3.6l1,0.7l0,0c4,3.1,6.5,6,10.7,10.6
	c30.1-82.7,43.2-175.7,38.8-277.7v-0.8c0.1-9.4-1.9-19.7-26.2-24.2c-11.5-2-22.9-4-34.4-6c-60.4-10.8-100.3-17.9-231.4-20.7
	c-7.8,0.2-15.2,0.3-22.3,0.6C499.1,189.3,502.2,193.6,505.2,198 M235.6,396.8c2.9-2.4,8.3-7.1,16.7-13.4l0,0
	c69.3-52.3,127.9-46.8,127.9-46.8c-3-10.4,3.1-10.9,6-16.2c-1.8-3.2-3.4-6.5-4.9-9.9l-14-33.5l10,10.2l-5.2-28.2l7.2,10.1l-2.3-28.6
	l6.6,8l1.1-21.5l6.9,13.6c0.3-0.8,0.6-1.6,0.9-2.5l7.5-19.5l2.5,8.8c2.8-16.4,4.5-27.5,3.3-37.2c-49.9,3.7-79.9,9-118.1,15.8
	c-10.7,1.9-21.9,3.9-34.6,6c-24.3,4.5-26.2,14.8-26.2,24.1v0.6C224.2,294.4,227.6,347.7,235.6,396.8"/>
<path class="st1" d="M696.7,578.2c0.7,0,1.4,0,2.1,0.1c1.1,0.1,2.2,0.1,3.4,0.2c1.5,0.1,3,0.3,4.6,0.4l0,0c11.4,1,22.7,2.5,34,4.5
	l0.9,0.3c57.9,10.8,120.9,36.2,176.5,71.3c0,0,3-74.3-153.5-133c-0.2-0.4-0.4-0.8-0.6-1.2c-7.4-12.1-22.7-20.9-34-26.7
	c0,0-5.5-62.9-66-112.7c-42.5-35-96.5-67.2-153-157.8c-5.8-9.4-12-18.5-18.5-27.5h0.1c-3.9-5.2-7.1-9.4-9.8-12.7
	c-46.1-58-95.5-84.6-137.9-74.9c0,0,60.2,23.8,69.2,78.1l0,0c0.7,4.3,1,8.6,1.1,13l0,0c0,2.3-0.1,4.7-0.2,7.1l0.1,1.5
	c0,0.1,0,0.1,0,0.2v0.2c-0.6,7.4-1.7,14.8-3.3,22.1l-2.4-8.7l-7.5,19.4c-0.3,0.9-0.6,1.7-0.9,2.5l-6.9-13.6l-1,21.4l-6.6-8l2.3,28.6
	l-7.1-10l5.1,28.1l-10-10.2l13.9,33.4c0.1,0.4,1.8,4.2,4.9,9.9c-2.9,5.3-12.3,10.3-3.7,21.2c0,0-65.6-10.9-138.5,49
	c0,0-0.1,0.1-0.1,0.1c-1.1,0.9-2.3,1.9-3.4,2.9l0,0c-4.2,3.5-8.4,7-12.6,10.6c19.9,108.3,62.9,195.3,116.3,261.5v0.1v-0.1
	c0.1,0,0.1,0.1,0.1,0.2c-0.5-9.3,0.7-33.3,32.9-48.7c-0.4,0.6-0.7,1.2-1.1,1.8c-10.4,19.6-13,36.1-12.1,49.3
	c1.8,12.3,7.2,23.9,15.5,33.2c-1.7-5.1-2.9-14.3,0.6-26c5-20.3,17.4-31.1,21.4-34.2c0.3-0.3,0.6-0.7,0.9-1c-0.1,0.1-0.1,0.3-0.1,0.4
	l0.6-0.4c-6.2,14.1-8.4,30.2-7.6,45c2.3,15.2,10.2,33.4,29.6,53.5c-2.2-7.8-2.6-25.6,1.8-37.4c-0.9,11.7,7.5,44.7,24.7,59
	c13.9,11.6,20.6,16.4,41.6,28.3c3.8,1.9,7.5,3.9,11.3,5.7l2.9,1.4l2.9-1.4c4-1.9,8.4-4.1,13.1-6.6c-0.5-4.5-1.4-14-1.4-14
	c-5.3-131.5,78.5-158.8,78.5-158.8s19.2,18.4,35-5.2c7.7,2.4,14.1,4.3,20.8,6.2l5.6,1.5l2.4,0.6c9.4,2.4,20.5,4.8,36.7,8
	c61.5,11.1,112.6,9.5,150.9,15.3c6.5,1.3,13.3,3,20.9,5.3c6.4,1.8,12.6,3.9,18.7,6.4c-45.5-39.8-113.6-58.5-166.7-67.7
	c-25.7-3.9-51.5-7-77.5-9.3C658.8,578.9,672.9,576.9,696.7,578.2"/>
<path class="st1" d="M664.3,630.7c-5.4-1.6-10.7-3.2-16-5c-19.4,23-35.7,6-35.7,6s-71.6,20.4-71.5,146.8c0.4,4.9,1,9.9,1.9,14.8
	c43-24.3,106.6-70.8,161.3-152.8C690.8,637.9,677.5,634.7,664.3,630.7"/>
<path class="st2" d="M394.8,123.3c14.5,6.2,25.7,16.4,32.2,21.9c26.9,22.8,47.8,48.6,70.4,84.7c48.5,77.5,96.2,114.4,134.5,144.1
	c8,6.2,15.6,12,22.8,18c27.9,23,43.2,49.2,52.3,69.1c6.5,13.5,9.3,25.5,8.6,24.3c-1.8-2.9-16.9-19.1-16.9-19.1
	c0.5,0.6,8,15.5,8.7,24.9c0,0-8.9-13.8-20.2-21.3c0,0,6.7,10.6,8.2,18.4c-5.4-6.1-11.7-11.2-18.8-15.2c2,4.4,3.7,8.9,5.2,13.5
	c0,0-8.7-8.7-15.4-8.2c0,0,4.5,8.4,6,12.2c0,0-7.5-7.1-14.4-5.9c1.2,2.5,2.2,5.1,3.1,7.7c0,0,1.2,4.5-0.6,5c0,0-37.1-37.3-38.6-43
	c-11.5-43.2-60.2-61-60.2-61c-14.6-6.7-36.7-8.2-54.8-15c-22.1-6.5-53.5-16.5-75-36.9c-11.3-10.7-20.7-23.3-27.6-37.3
	c3.1,2.7,6.6,5.1,10.2,7.1c0,0-11.1-13-13.5-24.8c0,0,4,5,13,9.9c0,0-11.7-16-11.4-24.7c2.6,4.7,6.9,8.3,11.9,10.2
	c0,0-8.4-15.4-7.8-26.7c0,0,4.8,8.5,10.3,10.6c-4.2-6.7-4.8-15-1.8-22.3c0,0,1.9,6,5.1,6.9c0,0-2.8-14.5,8.1-16.9
	c1.6-8,2.7-16.2,3.4-24.3C435.4,176.2,419.9,146.6,394.8,123.3 M425.5,709.5c-0.4-0.4-13.1-33.5,9.2-84.8c0,0-23.6,10-43.3,33.5
	c0,0,2.6-19.6,28.4-54.3c0,0-57.3,13.9-67.8,43c-41.2-59.1-65.5-120.3-79.2-169.1c-0.3-1.1-0.7-2.2-1-3.3c0.1,0.1,0.1,0.3,0.2,0.4
	c-5.3-18.9-9.4-38.1-12.2-57.5c0,0,58.5-61.2,142.3-53.3c0,0,4.6,10.4,9.5,16.3c-68.6,47.1-32.8,214.8,169,197.9
	c-84.9,4.8-107.7,27.4-121.2,40S427.4,666.9,425.5,709.5"/>
<path class="st0" d="M515.6,787.7c0,0-30.6-13.9-50.3-36.5s-8.1-56.8-8.1-56.8c-3.3,0-9.3,10.6-9.3,10.6
	c-1.5-13.1,10.6-26.2,10.6-26.2c-5.9,0.5-13,7.2-13,7.2c2.7-10.9,15.3-23.3,15.3-23.3c-5.4,0.4-10.5,2.6-14.4,6.4
	c2.3-8.3,18.2-20.3,18.2-20.3c-10.1,2.1-15.5,5.8-15.5,5.8c5.8-10.5,20.3-19.8,20.3-19.8c-4.1,0.9-8.2,2.2-12,3.9
	c0,0,11.9-19.5,29.8-27.9s30.4-13.3,56.8-18.6c26.4-5.3,41.5-6,41.5-5.6c0.5,5.6,8.9,22.3,12,27.7
	C509.6,665.9,514.3,760,515.6,787.7 M785.7,544.3C885.1,583,906.9,637,906.9,637s-3.5-3-5-4.5c-58.1-61.9-135.6-81-151.8-84.7
	c-1-0.2-7.2-1.3-7.6-1.1c-11.3,5.6-25.9,7.5-30.8,2.1c-4-4.3-1.9-14.5,13-17.2C741.7,528.4,770.7,538.5,785.7,544.3 M570.1,563.6
	c-9.9,0.7-37.6,2.1-61.1-2.9c-28.1-6-74.6-26.7-76.4-47.2c-1.5-16.9,12.2-19,12.2-19c-5.2-1.5-10.7-1.8-16.1-1c5.9-3.6,24-7,24-7
	c-4.9-2.1-15.9-3.1-15.9-3.1c7.2-2.1,14.5-3.5,22-4.1c-6.8-1.9-8.3-2.2-8.7-2.2c6.9-2.1,17.8-5.9,33.6-3.8s53.2,13.7,53.2,13.7
	c-43.5-16.5-65-33.4-63.7-49.3c1.4-16.8,24.9-13.1,24.9-13.1c-5.1-2.6-10.4-4.8-15.9-6.4c9-2,18.2-2.8,27.4-2.2
	c-7.3-5-18.8-8.1-18.8-8.1c14.4-2.4,33.2,2.4,33.2,2.4c-8-6.8-11.1-7.7-12-7.9c45.8,3.3,71.6,30.7,79.9,47.2
	c-26,0.4-46.1,24.6-46.1,50.2c0,24,17.4,47.6,41.1,50.7c-19.8,5.4-40.9-2.9-51.6-20.5C539.8,546.8,553.2,559.7,570.1,563.6"/>
<path class="st0" d="M606.1,541.7l-0.1,0.1c-3.3,0.3-6.8,0.3-9.9,0.3c-21.4,0-38.1-21.3-38.1-42.4s16.4-41.4,37.7-41.4
	c0.7,0,1.4,0,2.2,0.1c0.2,0.9,0.6,1.8,1,2.6c-16,1.1-29.8,11.7-34.8,26.9l-0.1,0.4c-1.2,3.7-1.7,7.6-1.7,11.4
	c0,21.5,17.8,39,39.6,39c2.3,0,4.6-0.2,6.8-0.6C607.8,539.2,606.9,540.4,606.1,541.7"/>
<path class="st0" d="M609.1,491.8c-1.5,0-2.9-0.2-4.2-0.8c-5.9-2.2-8.9-8.8-6.7-14.7c1.2-3.3,3.9-5.8,7.3-6.9
	c2.2,2.7,4.7,5.7,7.3,8.8c2.3,2.6,4.7,5.2,7.2,7.8c-0.5,0.4-1,0.7-1.6,1C616,489.8,612.7,491.5,609.1,491.8 M671.5,551.6
	c-20.6,0-48,8.4-48,27.6c0,5.7,1.5,11.3,4.3,16.3l-3,2.3c-5.2-7-10.4-12.3-10.4-26.9c0-23.9,20.6-43.2,46-43.2
	c2.2,0,4.5,0.1,6.7,0.4c0,0.1,0.2,0.1,0.4,0.1c12.4-23.5,34.6-26.2,46.2-25.1c15.8,1.4,25.1,5.3,35.7,18.5c0.7,0.9-4.4,0.6-5.4,0.1
	c-9.8-4.7-19.5-6.1-31.5-6.1c-20.1,0-29.2,7.6-39,23.5C669.6,545.5,671.7,551.6,671.5,551.6 M648.1,516.2c-3.8,0.9-7.6,2.1-11.2,3.5
	c1.5-3,2.7-6.2,3.5-9.5c0.1-0.5,0.2-1.1,0.3-1.7C644,511.9,646.6,514.6,648.1,516.2"/>
</svg>
